Coordinates
version=1
nRows=10
nColumns=63
inDegrees=yes

Units are S.I. units (second, meters, Newtons, ...)
If the header above contains a line with 'inDegrees', this indicates whether rotational values are in degrees (yes) or radians (no).

endheader
time	pelvis_tilt	pelvis_list	pelvis_rotation	pelvis_tx	pelvis_ty	pelvis_tz	hip_flexion_r	hip_adduction_r	hip_rotation_r	knee_angle_r	knee_angle_r_beta	ankle_angle_r	subtalar_angle_r	mtp_angle_r	hip_flexion_l	hip_adduction_l	hip_rotation_l	knee_angle_l	knee_angle_l_beta	ankle_angle_l	subtalar_angle_l	mtp_angle_l	L5_S1_Flex_Ext	L5_S1_Lat_Bending	L5_S1_axial_rotation	L4_L5_Flex_Ext	L4_L5_Lat_Bending	L4_L5_axial_rotation	L3_L4_Flex_Ext	L3_L4_Lat_Bending	L3_L4_axial_rotation	L2_L3_Flex_Ext	L2_L3_Lat_Bending	L2_L3_axial_rotation	L1_L2_Flex_Ext	L1_L2_Lat_Bending	L1_L2_axial_rotation	L1_T12_Flex_Ext	L1_T12_Lat_Bending	L1_T12_axial_rotation	Abs_r3	Abs_r2	Abs_r1	Abs_t1	Abs_t2	neck_flexion	neck_bending	neck_rotation	arm_flex_r	arm_add_r	arm_rot_r	elbow_flex_r	pro_sup_r	wrist_flex_r	wrist_dev_r	arm_flex_l	arm_add_l	arm_rot_l	elbow_flex_l	pro_sup_l	wrist_flex_l	wrist_dev_l
     14.53333333	      6.65086225	     -0.04837184	    192.27609335	     -0.45791456	      0.85741830	      0.72560163	     33.54731489	     -5.81321631	    -23.15809492	     16.77165857	      0.29272066	      9.25182755	      1.87347089	      0.00000000	     -2.16765218	     -0.88644404	      2.83686594	     36.07399108	      0.62960992	     22.05600122	     -8.61016943	      0.00000000	     -0.00220443	     -0.05371094	     -2.70948728	     -0.00409385	     -0.07143555	     -2.87883024	     -0.00362166	     -0.13059278	     -2.87883024	     -0.00251945	     -0.13059278	     -2.37080137	     -0.00204704	     -0.10952735	     -2.20145842	     -0.00125961	     -0.08319825	     -2.03211546	     -0.01574605	     -0.60758892	    -15.06935543	      0.00000000	      0.00000000	     -0.00000000	      0.00000000	      0.00000000	    -23.16187976	     -7.53709382	     -5.78343414	     28.21761487	     36.41930288	      0.00000000	      5.00000014	      8.13230665	    -21.49549095	     17.98475754	     43.92519299	     42.90387744	      0.00000000	      5.00000014
     14.56666667	      6.31855466	      0.21161213	    190.89696426	     -0.50392880	      0.85819295	      0.72246673	     32.01111497	     -4.19312947	    -22.65123351	     19.00762460	      0.33174563	     10.19128440	      1.31195130	      0.00000000	     -0.05859847	     -1.06612364	      4.16615467	     44.79905069	      0.78189094	     13.30787035	    -14.63739459	      0.00000000	     -0.00392569	      0.00399316	     -2.39802027	     -0.00729040	      0.00531091	     -2.54789654	     -0.00644952	      0.00970898	     -2.54789654	     -0.00448667	      0.00970898	     -2.09826774	     -0.00364540	      0.00814286	     -1.94839147	     -0.00224314	      0.00618541	     -1.79851521	     -0.02804083	      0.04517148	    -13.33706936	      0.00000000	      0.00000000	     -0.00000000	      0.00000000	      0.00000000	    -23.54411077	     -7.29344085	     -7.15478843	     28.65644615	     36.18605219	      0.00000000	      5.00000014	      6.28996855	    -20.35891300	     15.65238743	     43.82804520	     42.44781865	      0.00000000	      5.00000014
     14.60000000	      5.97246153	      0.58455717	    189.38715153	     -0.54940104	      0.86145984	      0.71939811	     29.80013292	     -2.41207380	    -21.64440645	     20.63084092	      0.36007610	     10.97432595	      0.70030152	      0.00000000	      3.07375095	     -1.84666020	      3.75810973	     53.37217430	      0.93152017	      3.96834721	    -17.57106188	      0.00000000	     -0.00387476	      0.07134648	     -2.04383542	     -0.00719582	      0.09489081	     -2.17157513	     -0.00636584	      0.17347182	     -2.17157513	     -0.00442846	      0.17347182	     -1.78835599	     -0.00359810	      0.14548973	     -1.66061628	     -0.00221404	      0.11051569	     -1.53287656	     -0.02767703	      0.80708560	    -11.36719944	      0.00000000	      0.00000000	     -0.00000000	      0.00000000	      0.00000000	    -23.22241954	     -7.22060349	     -8.10924859	     28.90505113	     36.00411576	      0.00000000	      5.00000014	      4.46213217	    -18.64789109	     12.78607581	     42.58791006	     41.94767338	      0.00000000	      5.00000014
     14.63333333	      5.63790272	      1.05363992	    187.70179389	     -0.59376447	      0.86647652	      0.71654654	     26.94802232	     -0.47938958	    -20.16527283	     21.26883923	      0.37121127	     11.73042029	      0.39799640	      0.00000000	      6.83487196	     -3.16650871	      2.47142210	     60.91727347	      1.06320699	     -3.04344803	    -18.51141054	      0.00000000	     -0.00437499	      0.14820468	     -1.64454670	     -0.00812479	      0.19711222	     -1.74733087	     -0.00718767	      0.36034485	     -1.74733087	     -0.00500017	      0.36034485	     -1.43897837	     -0.00406261	      0.30221897	     -1.33619420	     -0.00249987	      0.22956904	     -1.23341003	     -0.03125011	      1.67652093	     -9.14647540	      0.00000000	      0.00000000	     -0.00000000	      0.00000000	      0.00000000	    -22.29111700	     -7.42105457	     -8.43379696	     29.03619439	     35.92587880	      0.00000000	      5.00000014	      2.65892877	    -16.65977777	      9.46358401	     40.70969509	     41.40899123	      0.00000000	      5.00000014
     14.66666667	      5.34986062	      1.38989331	    185.91203183	     -0.63661850	      0.87250754	      0.71409353	     23.65113904	      1.26595011	    -18.07320373	     21.06703413	      0.36768911	     12.61901900	      0.29943899	      0.00000000	     10.97721923	     -4.60495261	      0.80115381	     67.09456333	      1.17102104	     -6.21964222	    -18.89599816	      0.00000000	     -0.00456917	      0.20401339	     -1.22869037	     -0.00848541	      0.27133781	     -1.30548352	     -0.00750669	      0.49603817	     -1.30548352	     -0.00522211	      0.49603817	     -1.07510407	     -0.00424293	      0.41602411	     -0.99831093	     -0.00261083	      0.31601675	     -0.92151778	     -0.03263715	      2.30784031	     -6.83360723	      0.00000000	      0.00000000	     -0.00000000	      0.00000000	      0.00000000	    -20.64895243	     -7.96725395	     -7.56200935	     28.84879368	     36.06935448	      0.00000000	      5.00000014	      0.71368576	    -14.93688595	      6.23834527	     38.92837002	     40.88231571	      0.00000000	      5.00000014
     14.70000000	      5.06600894	      1.61124266	    184.22620675	     -0.67782329	      0.87890798	      0.71234345	     19.85724123	      2.61042045	    -16.28801032	     19.94620339	      0.34812692	     13.78014669	      1.35026726	      0.00000000	     15.38688791	     -6.02441701	     -0.93990335	     71.67720743	      1.25100327	     -5.79259216	    -19.09321905	      0.00000000	     -0.00579060	      0.24244583	     -0.81764651	     -0.01075373	      0.32245296	     -0.86874941	     -0.00951338	      0.58948280	     -0.86874941	     -0.00661808	      0.58948280	     -0.71544069	     -0.00537715	      0.49439554	     -0.66433779	     -0.00330875	      0.37554860	     -0.61323488	     -0.04136170	      2.74259576	     -4.54750457	      0.00000000	      0.00000000	     -0.00000000	      0.00000000	      0.00000000	    -18.52567352	     -8.54822970	     -6.98341303	     28.72299912	     36.18630902	      0.00000000	      5.00000014	     -1.04548229	    -14.12069078	      5.60932999	     36.98699195	     40.75965064	      0.00000000	      5.00000014
     14.73333333	      4.85950516	      1.48224914	    182.14621159	     -0.71731295	      0.88476116	      0.71073828	     15.87170571	      3.55485353	    -13.70005451	     18.07109113	      0.31540004	     14.80813628	      1.99987721	      0.00000000	     19.70977740	     -7.34603516	     -3.56287499	     73.98565709	      1.29129332	     -2.35700091	    -18.99425594	      0.00000000	     -0.00386140	      0.22917070	     -0.35389418	     -0.00717100	      0.30479703	     -0.37601257	     -0.00634389	      0.55720565	     -0.37601257	     -0.00441319	      0.55720565	     -0.30965741	     -0.00358569	      0.46732490	     -0.28753902	     -0.00220640	      0.35498542	     -0.26542064	     -0.02758158	      2.59242482	     -1.96825328	      0.00000000	      0.00000000	     -0.00000000	      0.00000000	      0.00000000	    -15.82771537	    -10.26325631	     -1.54096418	     28.73088319	     37.32948074	      0.00000000	      5.00000014	     -3.14012960	    -13.45350009	      4.25439493	     35.45784410	     40.43633879	      0.00000000	      5.00000014
     14.76666667	      4.69386826	      1.08058030	    180.55530350	     -0.75464308	      0.88924035	      0.71010724	     11.88683816	      3.73232707	    -12.26937187	     15.87492296	      0.27706967	     16.02527698	      3.54872576	      0.00000000	     24.00076450	     -8.29885421	     -6.13777301	     73.61167297	      1.28476606	      2.30261837	    -18.56464330	      0.00000000	     -0.00305917	      0.17760265	      0.03192378	     -0.00568118	      0.23621152	      0.03391902	     -0.00502591	      0.43182308	      0.03391902	     -0.00349632	      0.43182308	      0.02793331	     -0.00284074	      0.36216732	      0.02593807	     -0.00174801	      0.27510650	      0.02394283	     -0.02185133	      2.00907668	      0.17755048	      0.00000000	      0.00000000	     -0.00000000	      0.00000000	      0.00000000	    -12.72261100	    -11.61579227	      2.10280832	     29.31044432	     38.16875858	      0.00000000	      5.00000014	     -4.82797505	    -13.91267341	      6.30240623	     33.73226710	     40.60882278	      0.00000000	      5.00000014
     14.80000000	      4.65645186	      0.42320506	    179.25844282	     -0.78972740	      0.89164264	      0.71010823	      8.35556909	      3.32948139	    -11.77968935	     13.89035533	      0.24243243	     17.31069694	      5.42153446	      0.00000000	     27.88190058	     -9.11263700	     -9.20502705	     70.10500591	      1.22356318	      7.14776965	    -16.43802638	      0.00000000	     -0.00170385	      0.08985553	      0.33989663	     -0.00316421	      0.11950785	      0.36114017	     -0.00279925	      0.21847473	      0.36114017	     -0.00194733	      0.21847473	      0.29740955	     -0.00158219	      0.18323339	      0.27616601	     -0.00097358	      0.13918621	      0.25492247	     -0.01217041	      1.01646370	      1.89040309	      0.00000000	      0.00000000	     -0.00000000	      0.00000000	      0.00000000	     -9.19408423	    -12.97948415	      5.74272971	     30.59366204	     39.00083294	      0.00000000	      5.00000014	     -6.40931106	    -14.88885132	      9.25717755	     32.29670767	     40.88299948	      0.00000000	      5.00000014
     14.83333333	      4.74680324	     -0.13101373	    178.26014579	     -0.82306003	      0.89193254	      0.71048895	      5.19952536	      2.95034600	    -11.57196081	     11.99993604	      0.20943839	     18.42455237	      6.71549827	      0.00000000	     30.83503595	    -10.26367241	    -13.08445434	     63.55697507	      1.10927848	     11.00664274	    -11.14935155	      0.00000000	     -0.00218341	      0.01086286	      0.54507683	     -0.00405480	      0.01444760	      0.57914413	     -0.00358712	      0.02641195	      0.57914413	     -0.00249541	      0.02641195	      0.47694222	     -0.00202751	      0.02215154	      0.44287492	     -0.00124760	      0.01682657	      0.40880762	     -0.01559585	      0.12288281	      3.03155379	      0.00000000	      0.00000000	     -0.00000000	      0.00000000	      0.00000000	     -5.49436078	    -13.74087042	      7.08572844	     32.45965930	     39.28937393	      0.00000000	      5.00000014	     -8.13227171	    -15.77831900	     11.06146462	     31.42511061	     41.09112775	      0.00000000	      5.00000014
